# Blender 5.0.1
# www.blender.org
mtllib 示波器.mtl
o 立方体
v -1.000000 -1.000000 1.000000
v -1.000000 1.000000 1.000000
v -1.000000 -1.000000 -2.182066
v -1.000000 1.000000 -2.182066
v 1.000000 -0.759395 0.681751
v 1.000000 0.759395 0.681751
v 1.000000 -0.759395 -0.869609
v 1.000000 0.759395 -0.869609
v 1.000000 1.000000 -2.182066
v 1.000000 -1.000000 -2.182066
v 1.000000 -1.000000 1.000000
v 1.000000 1.000000 1.000000
v 0.946344 0.607608 -0.714568
v 0.946344 -0.607608 -0.714568
v 0.946344 -0.607608 0.526709
v 0.946344 0.607608 0.526709
v 1.000000 0.625295 -1.210072
v 1.000000 -0.628238 -1.205377
v 1.000000 -0.623543 -1.918999
v 1.000000 0.634685 -1.918999
vn -1.0000 -0.0000 -0.0000
vn -0.0000 -0.0000 -1.0000
vn 0.9428 -0.3333 -0.0000
vn -0.0000 -0.0000 1.0000
vn -0.0000 -1.0000 -0.0000
vn -0.0000 1.0000 -0.0000
vn 1.0000 -0.0000 -0.0000
vn 0.9450 -0.0000 0.3270
vn 0.9450 -0.0000 -0.3270
vn 0.9428 0.3333 -0.0000
vt 0.625000 0.000000
vt 0.375000 0.250000
vt 0.375000 0.000000
vt 0.625000 0.250000
vt 0.375000 0.500000
vt 0.571818 0.713024
vt 0.571818 0.536976
vt 0.625000 0.750000
vt 0.375000 1.000000
vt 0.375000 0.750000
vt 0.125000 0.750000
vt 0.125000 0.500000
vt 0.875000 0.500000
vt 0.625000 0.500000
vt 0.576655 0.507411
vt 0.428182 0.536976
vt 0.428182 0.713024
vt 0.435397 0.527516
vt 0.424687 0.507411
vt 0.564373 0.527384
vt 0.625000 1.000000
vt 0.875000 0.750000
s 0
usemtl 材质
f 2/1/1 3/2/1 1/3/1
f 4/4/2 10/5/2 3/2/2
f 6/6/3 13/7/3 8/7/3
f 12/8/4 1/9/4 11/10/4
f 10/5/5 1/11/5 3/12/5
f 4/13/6 12/8/6 9/14/6
f 8/7/7 20/15/7 9/14/7
f 7/16/7 11/10/7 10/5/7
f 8/7/7 12/8/7 6/6/7
f 6/6/7 11/10/7 5/17/7
f 8/7/8 14/16/8 7/16/8
f 5/17/9 16/6/9 6/6/9
f 7/16/10 15/17/10 5/17/10
f 10/5/7 18/18/7 7/16/7
f 2/1/1 4/4/1 3/2/1
f 4/4/2 9/14/2 10/5/2
f 6/6/3 16/6/3 13/7/3
f 12/8/4 2/21/4 1/9/4
f 10/5/5 11/10/5 1/11/5
f 4/13/6 2/22/6 12/8/6
f 8/7/7 7/16/7 18/18/7
f 8/7/7 18/18/7 17/20/7
f 19/19/7 10/5/7 9/14/7
f 8/7/7 17/20/7 20/15/7
f 20/15/7 19/19/7 9/14/7
f 7/16/7 5/17/7 11/10/7
f 8/7/7 9/14/7 12/8/7
f 6/6/7 12/8/7 11/10/7
f 8/7/8 13/7/8 14/16/8
f 5/17/9 15/17/9 16/6/9
f 7/16/10 14/16/10 15/17/10
f 10/5/7 19/19/7 18/18/7
usemtl 材质.001
f 13/7/7 15/17/7 14/16/7
f 13/7/7 16/6/7 15/17/7
usemtl 材质.002
f 19/19/7 17/20/7 18/18/7
f 19/19/7 20/15/7 17/20/7
